<?xml version="1.0" standalone="no"?>
<!DOCTYPE svg PUBLIC "-//W3C//DTD SVG 20010904//EN"
 "http://www.w3.org/TR/2001/REC-SVG-20010904/DTD/svg10.dtd">
<svg version="1.0" xmlns="http://www.w3.org/2000/svg"
 width="500.000000pt" height="500.000000pt" viewBox="0 0 500.000000 500.000000"
 preserveAspectRatio="xMidYMid meet">

<g transform="translate(0.000000,500.000000) scale(0.100000,-0.100000)"
fill="#000000" stroke="none">
<path d="M3411 4287 c-6 -8 -8 -17 -4 -20 3 -4 -1 -7 -11 -7 -11 0 -14 -4 -10
-12 5 -8 2 -9 -11 -4 -16 6 -16 4 -4 -10 12 -15 11 -16 -11 -9 -14 4 -31 12
-37 17 -12 9 -73 -6 -73 -18 0 -12 64 -129 71 -132 5 -2 7 -7 4 -12 -3 -4 11
-55 30 -113 19 -57 35 -117 34 -133 0 -16 -3 -24 -5 -17 -13 31 -150 -59 -210
-137 -33 -44 -40 -48 -67 -43 -20 4 -28 3 -24 -4 5 -7 -6 -11 -29 -11 -46 0
-49 -5 -27 -39 36 -56 93 -98 156 -113 26 -7 50 -16 53 -21 7 -13 -92 -60
-111 -52 -10 3 -20 2 -24 -3 -11 -16 -51 -35 -51 -24 0 5 -7 10 -15 10 -16 0
-31 -42 -21 -59 4 -5 1 -13 -5 -17 -7 -4 -9 -3 -6 2 3 6 2 16 -2 22 -6 10 -15
9 -42 -5 -19 -10 -36 -21 -37 -26 -2 -4 -21 -26 -43 -49 -23 -25 -38 -51 -37
-62 6 -37 -22 -27 -81 31 -50 48 -61 66 -67 102 -6 35 -9 40 -14 25 -8 -20 -6
-52 4 -102 5 -20 2 -33 -9 -42 -8 -7 -15 -18 -15 -24 0 -12 -83 -79 -173 -141
-32 -21 -73 -54 -92 -72 -28 -27 -35 -30 -45 -18 -6 8 -9 18 -7 23 3 4 2 14
-4 22 -7 13 -9 13 -9 0 0 -8 -3 -25 -6 -38 -5 -18 -3 -21 10 -16 14 5 16 -4
16 -65 0 -39 -4 -71 -8 -71 -5 0 -15 23 -22 50 -7 28 -18 50 -23 50 -5 0 -20
-9 -34 -20 -14 -11 -30 -17 -35 -14 -5 3 -26 -5 -46 -19 -43 -30 -89 -51 -152
-69 -38 -11 -45 -17 -45 -38 0 -20 -17 -36 -91 -85 -100 -66 -182 -129 -203
-158 -7 -10 -20 -16 -28 -12 -14 5 -15 -5 -9 -75 11 -137 47 -191 106 -160 27
14 37 16 130 24 41 4 82 9 90 11 39 10 110 15 110 7 0 -5 10 -9 23 -8 12 1 22
-2 22 -5 0 -3 8 -13 17 -22 9 -9 24 -42 33 -72 21 -75 49 -89 102 -52 63 43
264 125 383 157 81 21 108 25 100 14 -7 -8 -19 -14 -27 -14 -7 0 -16 -7 -19
-15 -4 -8 -13 -15 -21 -15 -8 0 -11 -5 -7 -12 4 -7 4 -10 0 -6 -5 4 -34 -5
-65 -19 -31 -14 -78 -31 -105 -39 -27 -7 -59 -23 -72 -34 -12 -12 -27 -19 -33
-15 -6 3 -11 2 -11 -3 0 -5 -37 -31 -81 -58 -45 -27 -93 -60 -107 -73 -14 -12
-37 -30 -52 -40 -81 -48 -130 -86 -130 -101 0 -9 -18 -34 -40 -55 -22 -21 -40
-47 -40 -57 0 -20 -16 -25 -22 -6 -2 6 -22 -13 -43 -42 -40 -55 -52 -54 -41 5
4 19 6 38 6 41 -1 4 4 11 12 15 9 6 9 9 1 9 -7 0 -23 -16 -37 -36 -20 -30 -23
-41 -15 -67 5 -18 9 -48 9 -67 0 -43 40 -171 70 -225 103 -184 134 -230 253
-373 55 -65 67 -85 58 -96 -14 -16 -4 -46 15 -46 8 0 11 6 8 15 -4 10 0 15 10
15 9 0 16 -6 15 -12 -3 -19 31 -87 61 -121 49 -56 86 -91 93 -89 4 1 7 -2 7
-7 0 -12 52 -66 63 -66 6 0 13 -7 17 -15 4 -8 15 -30 24 -48 10 -17 15 -36 12
-41 -4 -5 -2 -11 4 -13 5 -1 11 -13 13 -25 2 -12 6 -26 10 -29 11 -11 9 -18
-10 -40 -32 -35 -48 -58 -36 -51 8 5 11 1 10 -11 -1 -17 -6 -18 -51 -9 -27 5
-68 18 -90 28 -40 20 -41 20 -17 1 14 -11 43 -25 65 -32 23 -7 58 -20 79 -30
21 -10 51 -22 68 -25 27 -6 32 -18 8 -21 -5 -1 -13 -2 -19 -3 -5 0 -10 -8 -10
-17 0 -8 -4 -13 -9 -9 -5 3 -12 1 -16 -5 -4 -6 7 -10 27 -10 24 0 29 3 18 10
-24 15 -8 17 40 6 33 -7 39 -11 23 -14 -13 -2 -23 -8 -23 -13 0 -16 41 1 64
26 12 12 31 27 44 34 27 14 28 31 2 59 -11 12 -20 26 -20 32 0 18 -51 94 -89
131 -48 47 -81 88 -81 100 0 16 -84 109 -98 109 -8 0 -10 5 -6 13 4 6 4 9 0 6
-9 -9 -103 85 -108 108 -2 9 8 29 22 43 106 107 193 206 233 265 25 39 70 104
98 145 87 126 106 154 124 190 37 71 249 315 376 431 133 122 156 141 229 187
l64 42 27 -30 c15 -16 30 -39 34 -50 6 -19 8 -19 36 -4 27 13 29 17 17 32 -12
15 -11 16 5 3 16 -12 21 -12 45 6 14 11 35 38 47 60 11 22 27 49 35 59 14 18
14 18 -2 5 -16 -12 -18 -11 -18 8 0 11 5 21 11 21 5 0 7 6 3 13 -6 9 -4 9 8
-1 11 -9 18 -10 23 -2 9 15 -5 32 -21 26 -8 -3 -14 -1 -14 4 0 5 -7 7 -15 4
-15 -6 -22 11 -7 19 4 2 1 2 -5 1 -16 -4 -17 18 -3 32 10 10 2 38 -37 123 -8
18 -16 40 -17 47 -1 7 -6 17 -10 21 -5 4 -6 -4 -4 -20 4 -23 2 -27 -13 -22
-16 5 -16 3 -6 -19 8 -17 13 -21 15 -11 2 8 7 15 12 15 10 0 21 -28 12 -33 -4
-2 -2 -3 4 -1 17 4 23 -40 8 -54 -16 -15 -44 -16 -44 -2 0 6 -7 10 -16 10 -8
0 -12 -4 -9 -10 11 -18 -5 -32 -21 -19 -18 14 -27 8 -18 -14 3 -9 12 -13 19
-11 10 4 13 -2 10 -25 -3 -23 0 -31 11 -31 8 0 17 -7 20 -15 4 -8 10 -13 14
-10 10 6 35 -23 26 -32 -3 -3 -6 -1 -6 5 0 7 -5 12 -11 12 -5 0 -7 -4 -4 -10
3 -5 0 -10 -7 -10 -7 0 -19 9 -26 20 -10 17 -16 18 -33 10 -11 -6 -17 -16 -14
-23 4 -7 0 -3 -9 7 -14 17 -14 20 2 32 15 11 14 12 -11 11 -26 -2 -38 -22 -16
-29 17 -6 -1 -38 -22 -38 -16 0 -17 -4 -8 -29 6 -16 17 -32 25 -35 8 -3 14
-13 14 -23 -1 -14 -7 -11 -30 15 -17 18 -30 41 -30 52 0 10 -4 21 -10 25 -5 3
-7 12 -4 19 3 7 -7 21 -21 30 -14 9 -23 21 -20 26 3 5 0 12 -6 15 -6 4 -19 26
-28 49 -16 37 -95 145 -254 349 -29 37 -65 76 -79 85 -39 26 -98 80 -98 90 0
5 -9 17 -21 28 -12 10 -33 39 -47 64 -14 25 -29 47 -32 50 -3 3 -5 19 -5 35 0
44 32 90 73 105 19 7 46 26 60 42 13 16 37 35 52 43 15 8 41 27 56 42 16 15
51 46 78 67 27 22 66 67 88 100 21 33 42 63 46 66 12 9 68 83 80 107 7 12 12
38 12 57 0 43 13 46 37 10 20 -31 24 -121 5 -133 -10 -6 -9 -15 3 -44 8 -20
15 -45 15 -56 0 -10 8 -22 17 -25 12 -5 14 -9 5 -18 -7 -7 -12 -20 -12 -29 0
-11 -11 -19 -31 -23 -31 -6 -31 -7 -15 -28 9 -13 19 -29 22 -36 9 -19 -17 -92
-32 -92 -27 0 -22 -20 18 -70 41 -52 41 -52 54 -28 7 12 13 30 14 39 0 27 49
170 78 228 20 42 26 70 27 125 0 66 17 116 37 116 5 0 8 7 8 15 0 8 4 15 10
15 5 0 13 12 16 28 4 15 13 32 20 37 7 6 15 24 19 42 5 27 2 34 -25 55 -62 46
-139 226 -158 373 -12 91 -35 145 -60 145 -11 0 -25 -6 -31 -13z m-6 -547 c-3
-5 -10 -10 -16 -10 -5 0 -9 5 -9 10 0 6 7 10 16 10 8 0 12 -4 9 -10z m-448
-474 c-5 -16 -24 -18 -30 -4 -3 9 3 14 14 14 11 0 18 -5 16 -10z m-927 -580
c0 -3 -145 -101 -180 -121 -13 -8 -13 -7 0 10 20 24 142 103 178 114 1 1 2 -1
2 -3z m825 -226 c3 -6 -1 -7 -9 -4 -18 7 -21 14 -7 14 6 0 13 -4 16 -10z m802
-181 c9 -20 9 -29 0 -38 -9 -9 -6 -13 11 -17 18 -5 32 -24 18 -24 -2 0 -13 -3
-23 -7 -10 -3 -15 -2 -10 2 4 5 -5 22 -20 37 -21 22 -23 28 -9 22 14 -5 17 -4
12 4 -4 7 -1 12 6 13 10 0 10 2 0 6 -6 2 -10 9 -7 13 3 5 1 11 -5 15 -6 3 -13
-1 -16 -9 -7 -18 -34 -22 -34 -5 0 5 5 7 10 4 6 -3 10 0 10 9 0 18 22 26 35
12 6 -6 15 -23 22 -37z m-73 -115 c6 -16 8 -16 24 0 10 9 25 16 32 16 10 0 9
-3 -3 -12 -9 -7 -21 -25 -26 -40 -10 -27 -41 -40 -41 -17 0 5 5 7 10 4 6 -3
10 -2 10 3 0 12 -29 24 -40 17 -10 -6 -35 23 -26 32 3 3 6 1 6 -5 0 -7 9 -12
20 -12 13 0 18 5 14 15 -4 8 -2 15 4 15 5 0 13 -7 16 -16z m86 -18 c0 -3 -4
-8 -10 -11 -5 -3 -10 -1 -10 4 0 6 5 11 10 11 6 0 10 -2 10 -4z m-1350 -261
c0 -2 -10 -10 -22 -16 -21 -11 -22 -11 -9 4 13 16 31 23 31 12z m-95 -55 c-3
-5 -12 -10 -18 -10 -7 0 -6 4 3 10 19 12 23 12 15 0z m-149 -197 c-1 -2 -24
-7 -50 -12 -45 -8 -46 -8 -30 10 18 20 65 29 76 14 4 -5 6 -11 4 -12z m234
-819 c0 -8 -4 -12 -10 -9 -5 3 -10 13 -10 21 0 8 5 12 10 9 6 -3 10 -13 10
-21z"/>
<path d="M2805 3634 c-22 -14 -31 -23 -20 -19 11 4 47 11 80 17 46 8 55 13 40
19 -35 13 -59 10 -100 -17z"/>
<path d="M2574 3478 l-19 -23 23 19 c12 11 22 21 22 23 0 8 -8 2 -26 -19z"/>
<path d="M3628 3453 c-32 -37 2 -132 37 -103 17 14 20 46 5 55 -6 4 -8 11 -5
16 4 5 0 18 -8 29 -13 19 -15 19 -29 3z"/>
<path d="M3864 3420 c-4 -16 -11 -30 -16 -30 -5 0 -7 -4 -3 -9 3 -5 -6 -22
-20 -37 -14 -15 -25 -33 -25 -40 0 -8 -7 -14 -16 -14 -13 0 -15 -7 -10 -30 4
-22 2 -29 -5 -24 -8 5 -9 2 -1 -12 8 -14 6 -21 -6 -32 -10 -7 -11 -10 -3 -6
10 5 12 3 5 -7 -5 -8 -7 -22 -6 -31 2 -10 -1 -18 -6 -18 -6 0 -24 -30 -41 -66
-17 -36 -35 -63 -41 -59 -5 3 -10 -1 -10 -10 0 -9 -4 -14 -10 -10 -5 3 -28
-12 -50 -33 l-41 -38 79 -160 c83 -166 107 -227 98 -243 -4 -5 0 -12 6 -14 10
-4 10 -8 -1 -15 -11 -8 -11 -10 0 -14 11 -4 12 -9 2 -27 -15 -25 -17 -65 -3
-56 6 4 10 -5 10 -19 0 -20 5 -26 21 -26 30 0 192 161 230 229 30 53 31 59 26
137 -4 58 -1 98 10 140 23 88 22 190 -4 240 -35 67 -105 122 -146 115 -5 -1
-6 3 -3 8 17 27 21 214 5 219 -5 2 -7 8 -3 13 3 5 0 9 -6 9 -6 0 -13 -13 -16
-30z"/>
<path d="M3388 3373 c-10 -2 -18 -9 -18 -14 0 -6 8 -5 20 1 11 6 20 13 20 15
0 3 -1 4 -2 4 -2 -1 -11 -3 -20 -6z"/>
<path d="M2960 3360 c0 -5 7 -10 15 -10 8 0 15 5 15 10 0 6 -7 10 -15 10 -8 0
-15 -4 -15 -10z"/>
<path d="M2435 3279 c-4 -6 -5 -12 -2 -15 2 -3 7 2 10 11 7 17 1 20 -8 4z"/>
<path d="M2375 3149 c-4 -6 -5 -12 -2 -15 2 -3 7 2 10 11 7 17 1 20 -8 4z"/>
<path d="M1990 3079 c-25 -27 -54 -49 -65 -49 -11 0 -31 -7 -45 -15 -14 -8
-44 -24 -67 -35 -24 -12 -43 -27 -43 -34 0 -7 -13 -29 -30 -47 -16 -19 -30
-41 -30 -49 0 -9 -4 -20 -8 -25 -13 -16 -30 -77 -36 -130 l-6 -50 18 60 c38
128 93 197 218 277 66 43 144 117 144 138 0 14 0 14 -50 -41z"/>
<path d="M3550 2593 c0 -5 4 -15 10 -23 6 -9 5 -20 -3 -30 -10 -13 -10 -13 5
-2 10 8 19 9 22 3 3 -5 0 -12 -6 -14 -8 -3 -6 -6 5 -6 22 -1 21 0 -4 43 -20
35 -29 44 -29 29z"/>
<path d="M3520 2550 c0 -5 5 -10 11 -10 5 0 7 5 4 10 -3 6 -8 10 -11 10 -2 0
-4 -4 -4 -10z"/>
<path d="M3570 2500 c0 -6 7 -10 15 -10 8 0 15 2 15 4 0 2 -7 6 -15 10 -8 3
-15 1 -15 -4z"/>
<path d="M3700 2365 c-11 -13 -10 -14 4 -9 9 3 16 10 16 15 0 13 -6 11 -20 -6z"/>
<path d="M3706 2302 c-2 -4 -1 -14 3 -21 6 -10 10 -9 14 3 6 16 -8 32 -17 18z"/>
<path d="M460 2275 c0 -11 28 -35 40 -35 6 0 18 -7 26 -15 9 -8 20 -15 25 -15
17 0 9 16 -19 37 -30 22 -72 38 -72 28z"/>
<path d="M3458 2233 c7 -3 16 -2 19 1 4 3 -2 6 -13 5 -11 0 -14 -3 -6 -6z"/>
<path d="M3460 2200 c-8 -5 -12 -11 -10 -14 3 -2 14 2 24 10 22 15 10 19 -14
4z"/>
<path d="M1524 2184 c21 -21 20 -27 -3 -19 -11 3 -22 1 -26 -5 -4 -6 -3 -10 2
-9 31 5 32 -5 1 -18 -21 -8 -38 -18 -38 -22 0 -4 -15 -6 -32 -3 -30 4 -31 3
-14 -10 17 -14 17 -15 -8 -31 -14 -9 -30 -25 -35 -36 -10 -18 -9 -18 32 -4 23
8 48 19 54 25 7 6 13 8 13 5 0 -7 -126 -106 -187 -147 -51 -34 -71 -60 -35
-45 9 4 25 10 35 12 9 3 17 9 17 14 0 5 4 9 9 9 5 0 22 5 38 12 15 6 32 10 37
9 4 -1 13 2 20 8 17 14 86 31 86 21 0 -5 -8 -14 -17 -19 -15 -8 -10 -10 21
-11 37 0 39 1 20 15 -17 13 -17 14 -1 15 9 0 19 0 22 0 3 -1 31 22 63 51 55
49 152 104 172 97 6 -2 -22 -30 -62 -63 -82 -69 -106 -99 -87 -111 7 -4 10 -3
6 3 -8 13 13 33 137 127 99 76 150 101 110 54 -19 -23 -19 -23 2 -5 11 9 27
17 35 17 15 1 49 23 49 34 0 9 -35 8 -44 -1 -4 -5 -17 -9 -29 -9 -12 -1 -46
-7 -76 -13 -77 -16 -112 -14 -165 10 -25 11 -51 17 -57 14 -5 -4 -22 5 -36 19
-14 14 -30 26 -35 26 -5 0 -2 -7 6 -16z"/>
<path d="M1235 1980 c-3 -6 1 -7 9 -4 18 7 21 14 7 14 -6 0 -13 -4 -16 -10z"/>
<path d="M1573 1913 c-15 -5 -17 -23 -4 -23 5 0 11 7 15 15 3 8 4 15 3 14 -1
0 -8 -3 -14 -6z"/>
<path d="M1600 1870 c0 -5 5 -10 11 -10 5 0 7 5 4 10 -3 6 -8 10 -11 10 -2 0
-4 -4 -4 -10z"/>
<path d="M376 903 c-11 -34 -15 -65 -11 -85 14 -71 37 -125 65 -156 16 -18 43
-52 59 -75 69 -100 161 -159 341 -219 l125 -42 205 -1 c255 0 388 25 595 110
44 18 89 36 100 40 19 7 19 7 -3 23 -13 10 -53 43 -89 74 -37 31 -70 55 -75
52 -4 -3 -11 1 -14 10 -10 26 -37 27 -83 4 -25 -13 -48 -25 -51 -28 -3 -3 -18
-6 -35 -8 -16 -2 -35 -8 -41 -13 -7 -6 -15 -6 -18 -1 -8 13 -67 2 -60 -12 3
-6 -1 -3 -9 7 -8 9 -22 17 -31 17 -20 0 -48 -25 -39 -34 4 -3 1 -6 -5 -6 -6 0
-14 5 -17 10 -9 15 -25 12 -25 -4 0 -7 -11 -16 -25 -18 -13 -3 -22 -1 -19 3 3
5 1 9 -5 9 -5 0 -11 -5 -13 -11 -2 -7 -35 -13 -78 -15 -41 -2 -95 -5 -120 -8
-25 -2 -82 -1 -128 3 -47 4 -86 3 -89 -2 -3 -5 -9 -4 -13 3 -4 6 -13 13 -21
14 -8 2 -27 8 -42 15 -16 6 -32 9 -37 6 -5 -3 -10 -1 -12 3 -1 5 -28 22 -58
39 -120 64 -138 81 -110 98 6 3 10 30 10 60 0 30 4 56 9 60 12 7 -45 94 -65
102 -8 3 -21 0 -28 -6 -12 -10 -15 -8 -18 11 -3 18 -8 11 -22 -29z"/>
<path d="M2250 825 c0 -8 4 -15 10 -15 5 0 7 7 4 15 -4 8 -8 15 -10 15 -2 0
-4 -7 -4 -15z"/>
<path d="M2116 767 c3 -10 9 -15 12 -12 3 3 0 11 -7 18 -10 9 -11 8 -5 -6z"/>
<path d="M1823 742 c21 -21 29 -24 39 -14 9 9 8 12 -5 12 -9 0 -17 4 -17 9 0
5 -10 11 -22 14 -20 6 -20 4 5 -21z"/>
<path d="M2050 756 c0 -7 -7 -19 -15 -26 -9 -7 -13 -15 -10 -18 5 -5 44 38 45
51 0 4 -4 7 -10 7 -5 0 -10 -6 -10 -14z"/>
<path d="M2155 740 c-3 -5 -1 -10 4 -10 6 0 11 5 11 10 0 6 -2 10 -4 10 -3 0
-8 -4 -11 -10z"/>
<path d="M1870 713 c0 -12 79 -83 93 -83 8 0 20 -6 26 -14 11 -12 6 -15 -30
-18 l-43 -3 26 -29 c24 -28 27 -29 78 -20 30 5 55 15 58 23 3 8 0 11 -5 8 -5
-3 -15 -2 -23 3 -13 8 -12 12 5 24 11 8 32 18 47 21 28 7 44 30 28 40 -6 4
-10 1 -10 -5 0 -6 -13 -16 -30 -21 -16 -6 -30 -14 -30 -18 0 -18 -58 -2 -82
22 -15 15 -33 27 -39 27 -7 0 -9 3 -6 6 13 13 -14 44 -38 44 -14 0 -25 -3 -25
-7z"/>
<path d="M2230 654 c0 -8 5 -12 10 -9 6 3 10 10 10 16 0 5 -4 9 -10 9 -5 0
-10 -7 -10 -16z"/>
<path d="M2342 570 c-18 -29 -15 -48 4 -22 8 12 14 27 12 32 -2 6 -9 1 -16
-10z"/>
<path d="M2085 550 c-3 -6 1 -7 9 -4 18 7 21 14 7 14 -6 0 -13 -4 -16 -10z"/>
<path d="M2228 549 c-25 -14 -22 -29 6 -29 15 0 26 7 29 20 6 22 -8 25 -35 9z"/>
<path d="M2106 500 c17 -17 39 -32 48 -34 10 -1 26 -12 35 -24 24 -31 148 -95
148 -77 0 8 -9 15 -19 15 -10 0 -18 5 -18 11 0 5 -5 7 -10 4 -6 -3 -13 1 -16
9 -3 9 -10 13 -15 10 -11 -7 -63 25 -55 33 3 3 -13 19 -35 35 -22 16 -38 32
-35 36 3 4 -10 9 -27 10 l-32 3 31 -31z"/>
<path d="M2240 499 c0 -5 5 -7 10 -4 6 3 10 8 10 11 0 2 -4 4 -10 4 -5 0 -10
-5 -10 -11z"/>
<path d="M2309 489 c-9 -17 -8 -20 3 -13 7 5 20 7 30 6 9 -2 20 3 24 9 5 9 2
10 -9 6 -10 -3 -17 -2 -17 3 0 18 -19 11 -31 -11z"/>
<path d="M2200 491 c0 -6 4 -13 10 -16 6 -3 7 1 4 9 -7 18 -14 21 -14 7z"/>
</g>
</svg>
